<?xml version="1.0" encoding="UTF-8" standalone="no"?>
<svg width="1872" height="1743" version="1.1" xmlns="http://www.w3.org/2000/svg" desc="Created with imagetracer.js version 1.2.6">
    <path fill="rgb(0,0,0)" stroke="rgb(0,0,0)" stroke-width="1" opacity="0" d="M 0 0 L 1872 0 L 1872 1743 L 0 1743 L 0 610.5 L 1 610.5 L 3 639.5 L 5 643.5 L 5 650.5 L 7 654.5 L 8 664.5 L 10 667.5 L 11 675.5 L 14 682.5 L 35 726.5 L 72.5 770 L 78.5 773 L 104.5 794 L 135.5 809 L 150.5 812 L 161.5 816 L 175.5 817 L 179.5 819 L 192.5 820 L 196.5 822 L 203.5 822 L 208.5 824 L 220.5 825 L 224.5 827 L 243.5 828 L 248.5 830 L 260.5 830 L 268.5 832 L 270.5 831 L 278.5 833 L 288.5 833 L 294.5 835 L 305.5 835 L 306.5 836 L 332.5 836 L 333.5 837 L 343.5 837 L 344.5 838 L 374.5 838 L 375.5 839 L 383.5 839 Q 386.2 841.8 392.5 841 L 395.5 843 L 407.5 844 L 410.5 846 L 420.5 847 L 424.5 849 L 429.5 849 L 438.5 852 L 442.5 852 L 517.5 879 L 534.5 890 L 579.5 915 L 631.5 952 L 640.5 959 L 691 1008.5 L 691 1045.5 L 696.5 1054 L 714 1061 Q 713.8 1048.5 722.5 1044 L 790 1000.5 L 792 994.5 L 792 977.5 L 785 959.5 L 774.5 949 Q 755 936.5 740 919.5 L 715 889.5 L 713 884.5 L 713 878.5 Q 710.3 876.2 711 870.5 L 708 863.5 L 653 794.5 L 615 750.5 L 613 742.5 L 613 703.5 L 614 702.5 L 614 692.5 L 615 691.5 L 615 678.5 Q 617.5 677 616 671.5 L 618 667.5 L 619 654.5 L 623 643.5 L 624 635.5 L 626 632.5 L 627 624.5 Q 633.7 612.7 637 597.5 L 654 566.5 L 650.5 565 L 610 599.5 L 594 628.5 L 589 642.5 L 588 649.5 L 586 652.5 L 583 667.5 L 581 670.5 L 580 680.5 L 578 683.5 L 577 692.5 L 575 696.5 L 575 702.5 L 573 706.5 L 572 723.5 L 570 728.5 L 570 737.5 L 569 738.5 L 569 748.5 L 567 754.5 L 566 782.5 L 564 790 L 532.5 790 Q 531 787.5 525.5 789 L 522.5 787 Q 515.5 788 512.5 785 L 500.5 784 L 496.5 782 L 484.5 781 L 480.5 779 L 474.5 779 L 472 776.5 L 467 758.5 L 456 742.5 L 455 731.5 L 453 728.5 L 452 718.5 L 450 714.5 L 450 709.5 L 448 705.5 L 447 695.5 L 445 691.5 L 444 681.5 L 442 677.5 L 442 672.5 L 439 662.5 L 439 656.5 L 437 652.5 L 437 617 Q 434.3 615.9 435 618.5 L 424 641.5 Q 424 647.5 421 650.5 L 420 663.5 L 418 667.5 L 417 693.5 L 416 694.5 L 416 732.5 L 417 733.5 L 418 751.5 L 420 756.5 L 420 765.5 Q 418.8 768.3 417.5 766 L 408.5 765 L 406.5 763 L 399.5 762 L 396.5 760 L 392.5 760 L 377.5 755 L 369.5 754 L 352.5 744 L 347 738.5 Q 332.3 722.2 323 700.5 L 304 651.5 L 303 642.5 L 301 639.5 L 300 630.5 L 298 627.5 Q 298.8 621.2 296 618.5 L 295 606.5 L 292 596.5 L 292 590.5 L 290 587.5 L 290 581.5 L 288 577.5 L 287 565.5 L 284 555.5 L 284 548.5 L 282 545.5 L 281 532.5 L 279 528.5 L 279 521.5 L 277 517.5 L 276 504.5 L 274 500.5 L 273 481.5 L 271 475.5 L 271 463.5 L 270 462.5 L 270 453.5 L 268 443.5 L 268 424.5 L 266 415.5 L 265 379.5 L 263 370.5 L 262 327.5 L 263 326.5 L 263 307.5 L 265 301.5 L 266 278.5 L 268 272.5 L 268 260.5 L 271 245.5 L 271 235.5 L 273 230.5 L 274 213.5 L 276 210.5 L 276 205.5 L 281 188.5 L 282 179.5 L 284 176.5 L 285 167.5 L 287 164.5 L 287 159.5 L 292 145.5 L 293 135.5 L 295 132.5 L 296 124.5 L 298 121.5 L 300 111.5 Q 298.3 108.3 293.5 108 L 277 128.5 L 247 178.5 L 231 215.5 L 225 236.5 L 225 247.5 L 224 248.5 L 223 269.5 L 222 270.5 L 222 306.5 L 221 307.5 L 221 320.5 L 220 321.5 L 219 427.5 L 220 428.5 L 220 446.5 L 222 453.5 L 222 472.5 L 224 481.5 L 225 511.5 L 227 520.5 L 228 542.5 L 230 547.5 L 231 565.5 L 233 571.5 L 233 581.5 L 236 597.5 L 236 607.5 L 238 612.5 L 239 621.5 L 241 624.5 L 242 632.5 L 247 646.5 L 247 655.5 L 249 660.5 L 250 679.5 L 252 685.5 L 252 693.5 L 255 708.5 L 255 717.5 L 257 723.5 L 257 736.5 L 250.5 747 Q 245.5 751 234.5 749 L 194.5 738 L 191.5 736 L 183.5 735 L 170.5 730 L 166.5 730 L 153.5 725 L 146.5 724 L 87.5 697 L 80 690.5 L 68 675.5 L 59 653.5 L 57 645.5 L 56 629.5 L 54 624.5 L 53 585.5 L 54 584.5 L 54 567.5 L 56 563.5 L 57 548.5 L 59 544.5 L 59 536.5 L 62 523.5 L 62 516.5 L 64 513.5 L 65 502.5 L 67 499.5 L 68 488.5 L 70 485.5 L 72 469.5 L 78 452.5 L 79 445.5 L 81 442.5 L 84 429.5 L 86 426.5 L 92 406.5 L 97 395.5 L 97 392.5 L 102 381.5 L 103 375.5 L 108 364.5 L 108 361.5 L 113 350.5 L 114 344.5 L 116 342.5 L 116 339.5 L 124 319.5 L 125 313.5 L 138 279.5 L 140 277.5 L 140 274.5 L 149 250.5 L 151 248.5 L 156 235.5 L 162 219.5 L 163 212.5 L 167 204.5 L 168 198.5 L 173 189.5 L 173 186.5 L 170.5 185 L 152 199.5 L 136 219.5 L 117 253.5 L 73 345.5 L 60 376.5 L 53 397.5 L 51 399.5 L 51 402.5 L 49 404.5 L 48 410.5 L 46 412.5 L 46 415.5 L 43 420.5 L 43 423.5 L 38 435.5 L 37 442.5 L 30 461.5 L 29 468.5 L 27 471.5 L 27 477.5 L 24 486.5 L 24 492.5 L 22 495.5 L 18 513.5 L 11 533.5 L 7 558.5 L 5 561.5 Q 5.8 567.8 3 570.5 L 2 594.5 L 0.5 601 L 0 0 Z M 355 80 L 353 81 L 348 87 L 348 113 L 347 114 L 345 231 L 344 232 L 344 270 L 343 271 L 343 310 L 342 311 L 340 427 L 339 428 L 339 466 L 338 467 L 336 585 L 335 586 Q 333 598 336 606 L 347 631 L 350 641 L 354 646 L 354 613 L 355 612 L 355 574 L 356 573 L 356 536 L 357 535 L 357 496 L 358 495 L 358 456 L 359 455 L 359 417 L 360 416 L 360 377 L 361 376 L 361 338 L 362 337 L 362 299 L 363 298 L 363 260 L 364 259 L 364 221 L 365 220 L 365 181 L 366 180 L 366 142 L 367 141 L 367 102 L 369 100 L 424 100 L 425 101 L 481 101 L 482 102 L 537 102 L 538 103 L 593 103 L 594 104 L 648 104 L 649 105 L 704 105 L 705 106 L 761 106 L 762 107 L 817 107 L 818 108 L 873 108 L 874 109 L 928 109 L 929 110 L 985 110 L 986 111 L 1020 111 L 1020 154 L 1021 155 L 1022 397 L 1025 403 L 1031 407 L 1069 407 L 1070 406 L 1115 406 L 1116 405 L 1160 405 L 1161 404 L 1206 404 L 1207 403 L 1253 403 L 1254 402 L 1298 402 L 1299 401 L 1344 401 L 1345 400 L 1390 400 L 1391 399 L 1480 398 L 1481 401 L 1481 436 L 1482 437 L 1482 471 L 1483 472 L 1483 506 L 1484 507 L 1484 542 L 1485 543 L 1485 577 L 1486 578 L 1487 607 L 1490 600 L 1504 549 L 1502 447 L 1501 446 L 1501 411 L 1500 410 L 1500 389 L 1497 382 L 1493 378 L 1450 378 L 1449 379 L 1404 379 L 1403 380 L 1359 380 L 1358 381 L 1313 381 L 1312 382 L 1267 382 L 1266 383 L 1221 383 L 1220 384 L 1175 384 L 1174 385 L 1130 385 L 1129 386 L 1042 387 L 1042 345 L 1041 344 L 1040 102 L 1037 97 L 1032 92 Q 1025 94 1024 91 L 969 91 L 968 90 L 914 90 L 913 89 L 857 89 L 856 88 L 689 86 L 688 85 L 634 85 L 633 84 L 578 84 L 577 83 L 521 83 L 520 82 L 355 80 Z M 1526 108 L 1522 112 L 1523 120 L 1525 123 L 1528 138 L 1530 141 L 1531 150 L 1533 153 L 1534 162 L 1536 165 L 1536 169 L 1539 177 L 1539 182 L 1542 190 L 1542 195 L 1544 198 L 1544 202 L 1547 211 L 1547 218 L 1549 223 L 1549 231 L 1550 232 L 1550 241 L 1552 246 L 1553 264 L 1555 272 L 1555 284 L 1557 291 L 1558 316 L 1560 326 L 1560 346 L 1559 347 L 1559 357 L 1558 358 L 1557 398 L 1555 407 L 1555 426 L 1553 437 L 1552 464 L 1550 471 L 1549 494 L 1547 498 L 1547 505 L 1544 516 L 1544 522 L 1542 526 L 1541 539 L 1539 543 L 1538 556 Q 1535 559 1536 566 L 1534 569 L 1533 582 L 1531 585 L 1531 591 L 1528 601 L 1528 607 L 1526 611 L 1525 622 L 1523 626 L 1522 635 L 1520 638 L 1516 657 L 1495 710 L 1475 739 L 1470 744 L 1453 754 L 1437 757 L 1423 762 L 1414 763 L 1404 767 L 1395 768 L 1381 773 L 1358 776 L 1354 778 L 1326 782 L 1322 784 L 1316 784 L 1306 787 L 1300 787 L 1297 789 Q 1291 788 1290 790 L 1258 790 L 1256 784 L 1256 771 L 1254 761 L 1253 738 L 1251 733 L 1251 724 L 1249 718 L 1248 703 L 1246 700 L 1245 689 L 1243 686 L 1243 681 L 1237 661 L 1237 657 L 1235 654 L 1234 647 L 1229 635 L 1229 632 L 1219 612 L 1212 608 L 1192 586 L 1182 592 L 1194 623 L 1202 652 L 1205 675 L 1207 679 L 1208 713 L 1209 714 L 1209 722 L 1208 723 L 1208 751 L 1207 752 L 1207 779 L 1205 782 L 1202 799 L 1191 823 L 1171 851 L 1161 861 L 1145 871 L 1131 877 L 1123 879 L 1115 879 L 1112 881 Q 1108 884 1107 890 L 1076 927 L 1041 955 L 1036 962 L 1029 980 L 1031 1000 L 1101 1045 L 1107 1054 L 1107 1061 L 1124 1055 L 1131 1046 L 1131 1008 L 1188 954 L 1243 915 L 1305 879 L 1380 852 L 1388 851 L 1392 849 L 1398 849 L 1401 847 L 1412 846 L 1415 844 L 1427 843 L 1430 841 Q 1436 842 1439 839 L 1447 839 L 1449 839 L 1450 838 L 1478 838 L 1479 837 L 1489 837 L 1490 836 L 1528 835 L 1533 833 L 1544 833 L 1553 831 L 1561 831 L 1562 830 L 1574 830 L 1578 828 L 1598 827 L 1602 825 L 1614 824 L 1619 822 L 1626 822 L 1630 820 L 1642 819 L 1647 817 L 1661 816 L 1664 814 L 1668 814 L 1676 811 L 1680 811 L 1683 809 L 1690 808 L 1720 793 L 1741 775 L 1748 771 L 1759 760 L 1772 760 L 1810 778 L 1815 782 Q 1817 781 1816 784 L 1830 795 L 1853 820 L 1856 825 Q 1859 830 1867 832 L 1870 831 L 1869 826 L 1857 805 L 1851 791 L 1835 768 L 1804 738 Q 1801 739 1802 737 L 1799 735 L 1797 732 L 1797 724 Q 1800 722 1799 717 L 1813 690 L 1819 667 L 1821 664 L 1821 660 L 1827 643 L 1827 585 Q 1825 583 1826 578 L 1824 575 L 1823 562 L 1821 558 L 1821 552 L 1818 541 L 1818 535 L 1816 532 L 1815 522 L 1791 462 L 1780 425 L 1758 367 L 1748 347 L 1747 342 L 1745 340 L 1734 313 L 1692 231 L 1683 216 L 1670 200 L 1652 185 L 1649 186 L 1649 190 L 1655 202 L 1661 223 L 1677 262 L 1680 273 L 1682 275 L 1683 281 L 1688 291 L 1688 294 L 1693 304 L 1702 329 L 1702 332 L 1704 334 L 1707 346 L 1713 360 L 1713 363 L 1731 410 L 1745 457 L 1750 469 L 1751 482 L 1753 486 L 1753 491 L 1756 500 L 1756 506 L 1758 509 L 1759 520 L 1761 524 L 1762 540 L 1764 545 L 1764 552 L 1766 558 L 1767 572 L 1768 573 L 1768 583 L 1769 584 L 1769 613 L 1767 619 L 1767 630 L 1764 643 L 1764 650 L 1755 674 L 1745 687 L 1735 697 L 1702 713 L 1678 722 L 1676 724 L 1662 727 L 1649 732 L 1641 733 L 1639 735 L 1624 738 L 1611 743 L 1602 744 L 1588 749 Q 1576 751 1572 747 Q 1566 743 1565 736 L 1566 714 L 1568 709 L 1569 691 L 1571 686 L 1571 677 L 1574 662 L 1574 651 L 1585 613 L 1585 602 L 1587 598 L 1588 577 L 1590 572 L 1590 563 L 1593 548 L 1593 539 L 1595 534 L 1596 505 L 1598 496 L 1598 481 L 1599 480 L 1600 457 L 1601 456 L 1601 437 L 1602 436 L 1602 420 L 1603 419 L 1603 381 L 1602 380 L 1602 354 L 1601 353 L 1601 307 L 1600 306 L 1600 285 L 1599 284 L 1599 260 L 1598 259 L 1598 249 L 1596 243 L 1596 234 L 1587 206 L 1585 204 L 1584 199 L 1571 172 L 1544 128 L 1529 110 Q 1530 107 1526 108 Z M 328 887 L 328 899 L 327 900 L 325 1017 L 324 1018 L 324 1056 L 323 1057 L 323 1096 L 322 1097 L 322 1135 L 321 1136 L 321 1175 L 320 1176 L 320 1214 L 319 1215 L 317 1331 L 316 1332 L 316 1371 L 315 1372 L 315 1410 L 314 1411 L 314 1450 L 313 1451 L 313 1489 L 312 1490 L 311 1568 L 310 1569 L 310 1583 L 312 1587 L 320 1591 L 337 1591 L 338 1592 L 594 1594 L 595 1595 L 679 1595 L 680 1596 L 767 1596 L 768 1597 L 784 1597 L 784 1577 L 742 1577 L 741 1576 L 656 1576 L 655 1575 L 570 1575 L 569 1574 L 485 1574 L 484 1573 L 399 1573 L 398 1572 L 332 1572 L 330 1571 L 330 1557 L 331 1556 L 331 1517 L 332 1516 L 332 1478 L 333 1477 L 333 1439 L 334 1438 L 334 1401 L 335 1400 L 335 1361 L 336 1360 L 336 1321 L 337 1320 L 337 1282 L 338 1281 L 338 1242 L 339 1241 L 339 1203 L 340 1202 L 340 1164 L 341 1163 L 341 1125 L 342 1124 L 342 1086 L 343 1085 L 343 1046 L 344 1045 L 344 1007 L 345 1006 L 345 967 L 346 966 L 346 927 L 347 926 L 347 887 L 328 887 Z M 1496 898 L 1495 932 L 1496 933 L 1498 1040 L 1499 1041 L 1500 1111 L 1501 1112 L 1501 1146 L 1502 1147 L 1503 1217 L 1504 1218 L 1506 1324 L 1507 1325 L 1507 1360 L 1508 1361 L 1509 1431 L 1510 1432 L 1510 1466 L 1511 1467 L 1511 1501 L 1512 1502 L 1512 1537 L 1513 1538 L 1513 1572 L 1514 1573 L 1514 1585 L 1345 1584 L 1344 1583 L 1258 1583 L 1257 1582 L 1172 1582 L 1171 1581 L 1086 1581 L 1085 1580 L 1036 1580 L 1036 1599 L 1038 1600 L 1109 1600 L 1111 1600 L 1112 1601 L 1368 1603 L 1369 1604 L 1454 1604 L 1455 1605 L 1528 1605 L 1531 1603 L 1534 1596 L 1533 1548 L 1532 1547 L 1532 1512 L 1531 1511 L 1531 1477 L 1530 1476 L 1530 1442 L 1529 1441 L 1529 1406 L 1528 1405 L 1528 1371 L 1527 1370 L 1527 1336 L 1526 1335 L 1526 1300 L 1525 1299 L 1525 1264 L 1524 1263 L 1524 1228 L 1523 1227 L 1523 1193 L 1522 1192 L 1522 1157 L 1521 1156 L 1521 1122 L 1520 1121 L 1520 1086 L 1519 1085 L 1519 1051 L 1518 1050 L 1518 1016 L 1517 1015 L 1517 980 L 1516 979 L 1516 944 L 1515 943 L 1515 908 L 1514 907 L 1514 899 L 1507 899 L 1506 898 L 1504 899 Q 1497 901 1496 898 Z M 887 940 L 871 944 L 858 949 L 832 964 Q 818 975 809 992 L 804 1011 L 800 1015 L 742 1053 L 739 1059 L 739 1067 L 747 1081 L 748 1093 L 749 1094 L 748 1122 L 741 1140 L 731 1157 L 711 1179 L 709 1184 L 710 1196 L 716 1215 L 716 1226 L 715 1227 L 715 1251 L 716 1252 L 716 1260 L 718 1265 L 721 1271 Q 736 1284 746 1303 Q 752 1313 755 1327 L 756 1350 L 757 1351 L 757 1412 L 758 1415 L 814 1521 L 823 1546 L 824 1560 L 825 1561 L 825 1591 L 826 1592 L 826 1601 L 830 1617 L 833 1638 L 848 1707 L 859 1729 L 871 1737 L 881 1739 L 908 1740 L 909 1741 L 911 1740 L 942 1739 L 951 1737 L 958 1733 Q 966 1726 970 1716 L 978 1689 L 991 1624 L 992 1613 L 996 1597 L 996 1564 L 997 1563 L 998 1547 L 1005 1526 L 1064 1413 L 1064 1355 L 1065 1354 L 1065 1341 L 1066 1340 L 1067 1324 L 1076 1302 Q 1087 1284 1101 1270 L 1105 1261 L 1106 1247 L 1107 1246 L 1106 1221 L 1105 1220 L 1107 1207 L 1112 1192 Q 1114 1182 1110 1179 L 1091 1158 L 1082 1144 L 1074 1124 Q 1072 1117 1073 1107 L 1072 1106 L 1074 1082 L 1083 1064 L 1080 1055 L 1021 1014 L 1017 1010 L 1014 995 L 1002 977 Q 977 949 935 940 L 927 940 L 926 941 L 912 941 L 911 940 L 908 941 L 887 940 Z " />
    <path fill="rgb(0,0,0)" stroke="rgb(0,0,0)" stroke-width="1" opacity="0" d="M 884.5 967 L 936.5 967 L 940.5 968 L 951.5 972 L 970.5 982 L 981 991.5 L 990 1005.5 L 994 1023.5 L 1002.5 1033 L 1052 1066.5 L 1048 1077.5 L 1046 1101.5 L 1047 1102.5 L 1047 1121.5 Q 1049.3 1122.8 1048 1127.5 L 1056 1148.5 L 1065 1165.5 L 1082 1185.5 L 1082 1187.5 L 1073 1203.5 L 1070 1216.5 L 1070 1232.5 L 1067 1246.5 L 1055.5 1262 L 1038.5 1272 L 1017.5 1273 L 1007.5 1271 L 994.5 1263 L 985.5 1263 L 977 1269.5 L 949 1349 L 944 1349 L 944 1347.5 L 939 1331.5 L 939 1327.5 L 922 1257.5 L 920 1250.5 L 916.5 1246 L 907.5 1245 L 903 1247 L 895 1274.5 L 895 1278.5 L 887 1307.5 L 879 1345.5 L 876.5 1349 Q 871.8 1349.8 871 1346.5 L 851 1286.5 L 842.5 1267 L 835.5 1263 L 826.5 1263 L 813.5 1271 L 803.5 1273 L 796.5 1273 L 795.5 1272 Q 786 1273.5 780.5 1271 L 769.5 1265 L 761 1256.5 L 754 1245.5 L 752 1237.5 L 751 1215.5 L 748 1202.5 L 739 1186.5 Q 757 1169.5 767 1144.5 L 774 1123.5 L 775 1093.5 L 774 1092.5 L 773 1076.5 L 769 1067.5 L 776.5 1061 L 817.5 1034 L 826 1025.5 L 829 1018.5 L 832 1003.5 Q 838.9 991.4 849.5 983 L 867.5 973 L 884.5 967 Z " />
    <path fill="rgb(0,0,0)" stroke="rgb(0,0,0)" stroke-width="1" opacity="0" d="M 772.5 1295 L 778.5 1298 L 803.5 1299 L 804.5 1298 L 813 1298 L 813 1305.5 L 814 1306.5 L 814 1330.5 L 816 1338.5 L 816 1352.5 L 823 1374.5 L 827 1381.5 L 833 1404.5 Q 837 1410.5 838 1419.5 L 843 1429.5 L 844 1436.5 L 862 1486.5 L 868 1511.5 L 869 1528.5 L 869 1530.5 L 868 1534.5 L 869 1537.5 L 869 1539.5 L 870 1559 Q 867.3 1560.1 868 1557.5 L 845 1522.5 L 841 1518.5 Q 814.1 1460.4 783 1406.5 L 783 1351.5 L 782 1350.5 L 781 1324.5 Q 778.3 1309.2 772 1297.5 L 772.5 1295 Z " />
    <path fill="rgb(0,0,0)" stroke="rgb(0,0,0)" stroke-width="1" opacity="0" d="M 1048.5 1295 Q 1051.3 1296.3 1049 1297.5 L 1041 1320.5 L 1038 1357.5 L 1039 1360.5 L 1038 1363.5 L 1039 1366.5 L 1038 1370.5 L 1039 1373.5 L 1038 1376.5 L 1039 1379.5 L 1038 1383.5 L 1039 1386.5 L 1038 1389.5 L 1039 1392.5 L 1038 1396.5 L 1039 1399.5 L 1038 1402.5 L 1039 1404.5 L 1003 1471.5 L 981 1517.5 L 975 1524.5 L 953 1559 Q 949 1560.4 951 1553.5 L 953 1542.5 L 953 1514.5 L 959 1487.5 L 962 1481.5 L 969 1457.5 L 976 1441.5 L 977 1434.5 L 988 1405.5 L 993 1385.5 L 998 1375.5 L 1005 1353.5 L 1006 1333.5 L 1008 1325.5 L 1008 1298 L 1025.5 1299 L 1026.5 1298 L 1042.5 1298 L 1048.5 1295 Z " />
    <path fill="rgb(0,0,0)" stroke="rgb(0,0,0)" stroke-width="1" opacity="0" d="M 899.5 1310 L 903 1312.5 L 904 1366.5 L 905 1367.5 L 906 1392.5 L 908.5 1396 Q 913 1397 914 1394.5 L 915 1392.5 L 916 1374.5 L 917 1373.5 L 918 1312.5 L 919.5 1311 L 922.5 1310 L 926 1315.5 L 927 1325.5 L 933 1349.5 L 938.5 1355 L 948.5 1356 L 956 1350.5 L 971 1326 L 976.5 1325 L 980 1328.5 L 984 1338.5 L 985 1359.5 L 980 1375.5 L 973 1407.5 L 971 1411.5 L 968 1428.5 L 966 1432.5 L 962 1453.5 L 960 1457.5 L 957 1474.5 L 955 1478.5 L 951 1499.5 L 949 1503.5 L 946 1520.5 L 941 1537.5 L 938 1555.5 L 935.5 1559 L 931.5 1560 L 914.5 1535 L 909.5 1534 L 904 1537.5 L 890.5 1560 Q 884.8 1560.8 884 1556.5 L 874 1514.5 L 874 1510.5 L 872 1506.5 L 872 1502.5 L 866 1481.5 L 858 1443.5 L 855 1435.5 L 852 1418.5 L 850 1414.5 L 850 1410.5 L 847 1402.5 L 847 1398.5 L 836 1355.5 L 837 1354.5 L 837 1340.5 L 841 1329.5 L 844.5 1325 Q 850 1324 851 1327.5 L 863 1347.5 L 870.5 1355 L 880.5 1356 L 887 1351.5 L 890 1344.5 L 895 1322.5 L 896 1312.5 L 897.5 1311 L 899.5 1310 Z " />
    <path fill="rgb(0,0,0)" stroke="rgb(0,0,0)" stroke-width="1" opacity="0" d="M 910.5 1538 L 915 1541.5 L 940 1594.5 L 944.5 1600 L 950.5 1600 Q 957.9 1597.4 962 1591.5 L 969 1568 L 972.5 1567 Q 975.6 1568.4 975 1573.5 L 971 1587.5 L 971 1593.5 L 969 1598.5 L 952 1687.5 L 947 1703.5 L 941.5 1712 L 934.5 1713 L 930 1707.5 L 928 1687.5 L 926 1681.5 L 925 1667.5 L 923 1661.5 L 923 1654.5 L 920 1640.5 L 920 1633.5 L 917 1620.5 L 917 1613.5 L 913.5 1608 Q 906.5 1606.5 905 1610.5 L 903 1629.5 L 900 1643.5 L 900 1650.5 L 898 1656.5 L 897 1670.5 L 895 1676.5 L 895 1683.5 L 892 1697.5 L 892 1704.5 L 891 1708.5 L 886.5 1713 Q 880 1714 878 1710.5 L 874 1702.5 L 868 1681.5 L 868 1676.5 L 865 1666.5 L 849 1581.5 L 847 1576.5 L 847 1568 L 850.5 1567 L 854 1571.5 L 854 1575.5 L 858 1589.5 L 864.5 1597 L 871.5 1600 L 876.5 1600 L 882 1593.5 L 908.5 1539 L 910.5 1538 Z M 909 1551 L 904 1561 L 905 1563 L 906 1561 L 912 1557 L 917 1562 L 913 1553 L 909 1551 Z " />
    <path fill="rgb(0,0,0)" stroke="rgb(0,0,0)" stroke-width="1" opacity="0.984313725490196" d="M 354.5 80 L 519.5 82 L 520.5 83 L 576.5 83 L 577.5 84 L 632.5 84 L 633.5 85 L 687.5 85 L 688.5 86 L 855.5 88 L 856.5 89 L 912.5 89 L 913.5 90 L 967.5 90 L 968.5 91 L 1023.5 91 Q 1025.3 93.8 1031.5 92 L 1037 96.5 L 1040 101.5 L 1041 343.5 L 1042 344.5 L 1042 387 L 1128.5 386 L 1129.5 385 L 1173.5 385 L 1174.5 384 L 1219.5 384 L 1220.5 383 L 1265.5 383 L 1266.5 382 L 1311.5 382 L 1312.5 381 L 1357.5 381 L 1358.5 380 L 1402.5 380 L 1403.5 379 L 1448.5 379 L 1449.5 378 L 1492.5 378 L 1497 381.5 L 1500 388.5 L 1500 409.5 L 1501 410.5 L 1501 445.5 L 1502 446.5 L 1504 548.5 L 1490 599.5 L 1486.5 607 L 1486 577.5 L 1485 576.5 L 1485 542.5 L 1484 541.5 L 1484 506.5 L 1483 505.5 L 1483 471.5 L 1482 470.5 L 1482 436.5 L 1481 435.5 L 1481 400.5 L 1480 398 L 1390.5 399 L 1389.5 400 L 1344.5 400 L 1343.5 401 L 1298.5 401 L 1297.5 402 L 1253.5 402 L 1252.5 403 L 1206.5 403 L 1205.5 404 L 1160.5 404 L 1159.5 405 L 1115.5 405 L 1114.5 406 L 1069.5 406 L 1068.5 407 L 1030.5 407 L 1025 402.5 L 1022 396.5 L 1021 154.5 L 1020 153.5 L 1020 111 L 985.5 111 L 984.5 110 L 928.5 110 L 927.5 109 L 873.5 109 L 872.5 108 L 817.5 108 L 816.5 107 L 761.5 107 L 760.5 106 L 704.5 106 L 703.5 105 L 648.5 105 L 647.5 104 L 593.5 104 L 592.5 103 L 537.5 103 L 536.5 102 L 481.5 102 L 480.5 101 L 424.5 101 L 423.5 100 L 368.5 100 L 367 101.5 L 367 140.5 L 366 141.5 L 366 179.5 L 365 180.5 L 365 219.5 L 364 220.5 L 364 258.5 L 363 259.5 L 363 297.5 L 362 298.5 L 362 336.5 L 361 337.5 L 361 375.5 L 360 376.5 L 360 415.5 L 359 416.5 L 359 454.5 L 358 455.5 L 358 494.5 L 357 495.5 L 357 534.5 L 356 535.5 L 356 572.5 L 355 573.5 L 355 611.5 L 354 612.5 L 353.5 646 L 350 640.5 L 347 630.5 L 336 605.5 Q 333.4 597.6 335 585.5 L 336 584.5 L 338 466.5 L 339 465.5 L 339 427.5 L 340 426.5 L 342 310.5 L 343 309.5 L 343 270.5 L 344 269.5 L 344 231.5 L 345 230.5 L 347 113.5 L 348 112.5 L 348 86.5 L 352.5 81 L 354.5 80 Z " />
    <path fill="rgb(0,0,0)" stroke="rgb(0,0,0)" stroke-width="1" opacity="0.984313725490196" d="M 293.5 108 Q 298.3 108.3 300 111.5 L 298 121.5 L 296 124.5 L 295 132.5 L 293 135.5 L 292 145.5 L 287 159.5 L 287 164.5 L 285 167.5 L 284 176.5 L 282 179.5 L 281 188.5 L 276 205.5 L 276 210.5 L 274 213.5 L 273 230.5 L 271 235.5 L 271 245.5 L 268 260.5 L 268 272.5 L 266 278.5 L 265 301.5 L 263 307.5 L 262 343.5 L 263 344.5 L 263 370.5 L 265 379.5 L 266 415.5 L 268 424.5 L 268 443.5 L 269 444.5 L 270 462.5 L 271 463.5 L 271 475.5 L 273 481.5 L 274 500.5 L 276 504.5 L 277 517.5 L 279 521.5 L 279 528.5 L 282 538.5 L 282 545.5 L 284 548.5 L 285 561.5 L 287 565.5 L 287 571.5 L 290 581.5 L 290 587.5 L 292 590.5 L 292 596.5 L 295 606.5 L 295 612.5 L 298 622.5 L 298 627.5 L 300 630.5 L 304 651.5 L 326 707.5 Q 336.5 728.5 352.5 744 L 369.5 754 L 373.5 754 L 388.5 759 L 396.5 760 L 399.5 762 L 406.5 763 L 408.5 765 Q 415.5 764 418.5 767 L 420 765.5 L 420 756.5 L 418 751.5 L 417 733.5 L 416 732.5 L 416 694.5 L 417 693.5 L 418 667.5 L 420 663.5 L 421 650.5 L 428 631.5 L 435 617 L 437 617.5 L 437 652.5 L 439 656.5 L 439 662.5 L 442 672.5 L 442 677.5 L 444 681.5 L 445 691.5 L 447 695.5 L 448 705.5 L 450 709.5 L 450 714.5 L 452 718.5 L 453 728.5 L 455 731.5 L 456 742.5 L 466 756.5 L 471 774.5 L 474.5 779 L 480.5 779 L 484.5 781 L 512.5 785 L 516.5 787 L 522.5 787 L 525.5 789 Q 531 787.5 532.5 790 L 564 790 L 566 782.5 L 567 754.5 L 569 748.5 L 569 738.5 L 570 737.5 L 570 728.5 L 572 723.5 L 573 706.5 L 575 702.5 L 575 696.5 L 577 692.5 L 578 683.5 L 580 680.5 L 581 670.5 L 583 667.5 L 586 652.5 L 588 649.5 L 589 642.5 L 594 628.5 L 608 602.5 L 616.5 593 L 642.5 571 L 650.5 565 L 652.5 565 L 654 567.5 L 637 597.5 Q 633.7 612.7 627 624.5 L 626 632.5 L 624 635.5 L 623 643.5 L 619 654.5 L 618 667.5 L 616 671.5 Q 617.5 677 615 678.5 L 615 691.5 L 614 692.5 L 614 702.5 L 613 703.5 L 613 742.5 L 615 750.5 L 653 794.5 L 708 863.5 L 711 870.5 Q 710.3 876.2 713 878.5 L 713 884.5 L 715 889.5 L 740 919.5 L 754.5 934 L 774.5 949 L 785 959.5 L 792 977.5 L 792 994.5 L 788.5 1002 L 722.5 1044 L 716 1050.5 L 714 1055.5 L 714 1061 L 707.5 1058 L 704.5 1058 L 694 1051.5 L 691 1045.5 L 691 1008.5 L 673.5 991 L 640.5 959 L 602.5 931 L 579.5 915 L 512.5 877 L 442.5 852 L 438.5 852 L 429.5 849 L 424.5 849 L 420.5 847 L 410.5 846 L 407.5 844 L 395.5 843 L 392.5 841 Q 386.2 841.8 383.5 839 L 375.5 839 L 374.5 838 L 344.5 838 L 343.5 837 L 333.5 837 L 332.5 836 L 306.5 836 L 305.5 835 L 294.5 835 L 288.5 833 L 278.5 833 L 269.5 831 L 267.5 831 L 224.5 827 L 220.5 825 L 208.5 824 L 203.5 822 L 196.5 822 L 186.5 819 L 179.5 819 L 175.5 817 L 161.5 816 L 150.5 812 L 132.5 808 L 98.5 790 Q 87.6 777.9 72.5 770 L 64 761.5 L 35 726.5 L 11 675.5 L 10 667.5 L 7 659.5 L 7 654.5 L 5 650.5 L 5 643.5 L 3 639.5 L 0 601.5 L 2 594.5 L 3 570.5 Q 5.8 567.8 5 561.5 L 7 558.5 L 11 533.5 L 18 513.5 L 22 495.5 L 24 492.5 L 24 486.5 L 26 482.5 L 27 471.5 L 29 468.5 L 30 461.5 L 37 442.5 L 38 435.5 L 40 432.5 L 43 420.5 L 46 415.5 L 46 412.5 L 48 410.5 L 49 404.5 L 51 402.5 L 51 399.5 L 53 397.5 L 60 376.5 L 73 345.5 L 117 253.5 L 136 219.5 L 153.5 198 L 171.5 185 Q 173.8 185.8 173 189.5 L 168 198.5 Q 167.3 207.3 163 212.5 L 162 219.5 L 125 313.5 L 124 319.5 L 116 339.5 L 116 342.5 L 114 344.5 L 113 350.5 L 102 378.5 L 102 381.5 L 87 420.5 L 83 436.5 L 79 445.5 L 78 452.5 L 76 455.5 L 75 462.5 L 73 465.5 L 72 474.5 L 70 479.5 L 70 485.5 L 68 488.5 L 67 499.5 L 65 502.5 L 64 513.5 L 62 516.5 L 62 523.5 L 59 536.5 L 59 544.5 L 57 548.5 L 56 563.5 L 54 567.5 L 53 611.5 L 54 612.5 L 54 624.5 L 56 629.5 L 57 645.5 L 62 662.5 L 64 664.5 L 68 675.5 L 84.5 695 L 109.5 708 L 146.5 724 L 153.5 725 L 166.5 730 L 170.5 730 L 183.5 735 L 191.5 736 L 211.5 743 L 219.5 744 L 222.5 746 L 226.5 746 L 234.5 749 L 246.5 749 L 252 745.5 L 257 736.5 L 257 723.5 L 255 717.5 L 254 700.5 L 252 693.5 L 252 685.5 L 250 679.5 L 249 660.5 L 247 655.5 L 247 646.5 L 242 632.5 L 241 624.5 L 239 621.5 L 238 612.5 L 236 607.5 L 236 597.5 L 233 581.5 L 233 571.5 L 231 565.5 L 230 547.5 L 228 542.5 L 227 520.5 L 225 511.5 L 224 481.5 L 222 472.5 L 222 453.5 L 220 446.5 L 220 428.5 L 219 427.5 L 219 374.5 L 220 373.5 L 220 321.5 L 221 320.5 L 221 307.5 L 222 306.5 L 222 270.5 L 223 269.5 L 223 258.5 L 225 247.5 L 225 236.5 Q 228.2 232.2 228 224.5 L 242 188.5 L 253 167.5 L 277 128.5 L 293.5 108 Z " />
    <path fill="rgb(0,0,0)" stroke="rgb(0,0,0)" stroke-width="1" opacity="0.984313725490196" d="M 1525.5 108 Q 1529.9 106.5 1529 109.5 L 1544 127.5 L 1571 171.5 L 1584 198.5 L 1585 203.5 L 1587 205.5 L 1596 233.5 L 1596 242.5 L 1598 248.5 L 1598 258.5 L 1599 259.5 L 1599 283.5 L 1600 284.5 L 1600 305.5 L 1601 306.5 L 1601 352.5 L 1602 353.5 L 1602 379.5 L 1603 380.5 L 1603 418.5 L 1602 419.5 L 1602 435.5 L 1601 436.5 L 1601 455.5 L 1600 456.5 L 1599 479.5 L 1598 480.5 L 1598 495.5 L 1596 504.5 L 1595 533.5 L 1593 538.5 L 1593 547.5 L 1590 562.5 L 1590 571.5 L 1588 576.5 L 1587 597.5 L 1585 601.5 L 1585 612.5 L 1574 650.5 L 1574 661.5 L 1571 676.5 L 1571 685.5 L 1569 690.5 L 1568 708.5 L 1566 713.5 L 1565 735.5 Q 1566.4 743 1571.5 747 Q 1576.5 751 1587.5 749 L 1601.5 744 L 1610.5 743 L 1623.5 738 L 1638.5 735 L 1640.5 733 L 1648.5 732 L 1661.5 727 L 1675.5 724 L 1677.5 722 L 1701.5 713 L 1734.5 697 L 1745 686.5 L 1755 673.5 L 1764 649.5 L 1764 642.5 L 1767 629.5 L 1767 618.5 L 1769 612.5 L 1769 583.5 L 1768 582.5 L 1768 572.5 L 1767 571.5 L 1766 557.5 L 1764 551.5 L 1764 544.5 L 1762 539.5 L 1761 523.5 L 1759 519.5 L 1758 508.5 L 1756 505.5 L 1756 499.5 L 1753 490.5 L 1753 485.5 L 1751 481.5 L 1750 468.5 L 1745 456.5 L 1731 409.5 L 1713 362.5 L 1713 359.5 L 1707 345.5 L 1704 333.5 L 1702 331.5 L 1702 328.5 L 1693 303.5 L 1688 293.5 L 1688 290.5 L 1683 280.5 L 1682 274.5 L 1680 272.5 L 1677 261.5 L 1661 222.5 L 1655 201.5 L 1649 189.5 L 1649 186 L 1651.5 185 L 1670 199.5 L 1683 215.5 L 1692 230.5 L 1734 312.5 L 1745 339.5 L 1747 341.5 L 1748 346.5 L 1758 366.5 L 1780 424.5 L 1791 461.5 L 1815 521.5 L 1816 531.5 L 1818 534.5 L 1818 540.5 L 1821 551.5 L 1821 557.5 L 1823 561.5 L 1824 574.5 L 1826 577.5 Q 1824.5 583 1827 584.5 L 1827 642.5 L 1821 659.5 L 1821 663.5 L 1819 666.5 L 1813 689.5 L 1799 716.5 Q 1799.8 721.8 1797 723.5 L 1797 731.5 L 1799 735 L 1802 736.5 Q 1801.3 738.8 1803.5 738 L 1835 767.5 L 1851 790.5 L 1857 804.5 L 1869 825.5 L 1870 830.5 L 1866.5 832 Q 1859.3 830.2 1856 824.5 L 1853 819.5 L 1829.5 795 L 1816 784 Q 1817.1 781.3 1814.5 782 L 1809.5 778 L 1771.5 760 L 1758.5 760 L 1747.5 771 L 1740.5 775 L 1719.5 793 L 1689.5 808 L 1682.5 809 L 1679.5 811 L 1675.5 811 L 1667.5 814 L 1663.5 814 L 1660.5 816 L 1646.5 817 L 1641.5 819 L 1629.5 820 L 1625.5 822 L 1618.5 822 L 1613.5 824 L 1601.5 825 L 1597.5 827 L 1577.5 828 L 1573.5 830 L 1561.5 830 L 1560.5 831 L 1552.5 831 L 1543.5 833 L 1532.5 833 L 1527.5 835 L 1489.5 836 L 1488.5 837 L 1478.5 837 L 1477.5 838 L 1449.5 838 L 1448.5 839 L 1446.5 839 L 1438.5 839 Q 1435.8 841.8 1429.5 841 L 1426.5 843 L 1414.5 844 L 1411.5 846 L 1400.5 847 L 1397.5 849 L 1391.5 849 L 1387.5 851 L 1379.5 852 L 1304.5 879 L 1242.5 915 L 1187.5 954 L 1131 1007.5 L 1131 1045.5 L 1123.5 1055 L 1107 1061 L 1107 1053.5 L 1100.5 1045 L 1031 999.5 L 1029 979.5 L 1036 961.5 L 1040.5 955 L 1076 926.5 L 1107 889.5 Q 1107.6 883.6 1111.5 881 L 1114.5 879 L 1122.5 879 L 1130.5 877 L 1144.5 871 L 1160.5 861 L 1171 850.5 L 1191 822.5 L 1202 798.5 L 1205 781.5 L 1207 778.5 L 1207 751.5 L 1208 750.5 L 1208 722.5 L 1209 721.5 L 1209 713.5 L 1208 712.5 L 1207 678.5 L 1205 674.5 L 1202 651.5 L 1194 622.5 L 1182 591.5 L 1191.5 586 L 1211.5 608 L 1219 612 L 1229 631.5 L 1229 634.5 L 1234 646.5 L 1235 653.5 L 1237 656.5 L 1237 660.5 L 1243 680.5 L 1243 685.5 L 1245 688.5 L 1246 699.5 L 1248 702.5 L 1249 717.5 L 1251 723.5 L 1251 732.5 L 1253 737.5 L 1254 760.5 L 1256 770.5 L 1256 783.5 L 1258 790 L 1289.5 790 Q 1291 787.5 1296.5 789 L 1299.5 787 L 1305.5 787 L 1315.5 784 L 1321.5 784 L 1325.5 782 L 1353.5 778 L 1357.5 776 L 1380.5 773 L 1394.5 768 L 1403.5 767 L 1413.5 763 L 1422.5 762 L 1436.5 757 L 1452.5 754 L 1469.5 744 L 1475 738.5 L 1495 709.5 L 1516 656.5 L 1520 637.5 L 1522 634.5 L 1523 625.5 L 1525 621.5 L 1526 610.5 L 1528 606.5 L 1528 600.5 L 1531 590.5 L 1531 584.5 L 1533 581.5 L 1534 568.5 L 1536 565.5 Q 1535 558.5 1538 555.5 L 1539 542.5 L 1541 538.5 L 1542 525.5 L 1544 521.5 L 1544 515.5 L 1547 504.5 L 1547 497.5 L 1549 493.5 L 1550 470.5 L 1552 463.5 L 1553 436.5 L 1555 425.5 L 1555 406.5 L 1557 397.5 L 1558 357.5 L 1559 356.5 L 1559 346.5 L 1560 345.5 L 1560 325.5 L 1558 315.5 L 1557 290.5 L 1555 283.5 L 1555 271.5 L 1553 263.5 L 1552 245.5 L 1550 240.5 L 1550 231.5 L 1549 230.5 L 1549 222.5 L 1547 217.5 L 1547 210.5 L 1544 201.5 L 1544 197.5 L 1542 194.5 L 1542 189.5 L 1539 181.5 L 1539 176.5 L 1536 168.5 L 1536 164.5 L 1534 161.5 L 1533 152.5 L 1531 149.5 L 1530 140.5 L 1528 137.5 L 1525 122.5 L 1523 119.5 L 1522 111.5 L 1525.5 108 Z " />
    <path fill="rgb(0,0,0)" stroke="rgb(0,0,0)" stroke-width="1" opacity="0.984313725490196" d="M 328 887 L 347 887 L 347 925.5 L 346 926.5 L 346 965.5 L 345 966.5 L 345 1005.5 L 344 1006.5 L 344 1044.5 L 343 1045.5 L 343 1084.5 L 342 1085.5 L 342 1123.5 L 341 1124.5 L 341 1162.5 L 340 1163.5 L 340 1201.5 L 339 1202.5 L 339 1240.5 L 338 1241.5 L 338 1280.5 L 337 1281.5 L 337 1319.5 L 336 1320.5 L 336 1359.5 L 335 1360.5 L 335 1399.5 L 334 1400.5 L 334 1437.5 L 333 1438.5 L 333 1476.5 L 332 1477.5 L 332 1515.5 L 331 1516.5 L 331 1555.5 L 330 1556.5 L 330 1570.5 L 331.5 1572 L 397.5 1572 L 398.5 1573 L 483.5 1573 L 484.5 1574 L 568.5 1574 L 569.5 1575 L 654.5 1575 L 655.5 1576 L 740.5 1576 L 741.5 1577 L 784 1577 L 784 1597 L 767.5 1597 L 766.5 1596 L 679.5 1596 L 678.5 1595 L 594.5 1595 L 593.5 1594 L 337.5 1592 L 336.5 1591 L 319.5 1591 L 312 1586.5 L 310 1582.5 L 310 1568.5 L 311 1567.5 L 312 1489.5 L 313 1488.5 L 313 1450.5 L 314 1449.5 L 314 1410.5 L 315 1409.5 L 315 1371.5 L 316 1370.5 L 316 1331.5 L 317 1330.5 L 319 1214.5 L 320 1213.5 L 320 1175.5 L 321 1174.5 L 321 1135.5 L 322 1134.5 L 322 1096.5 L 323 1095.5 L 323 1056.5 L 324 1055.5 L 324 1017.5 L 325 1016.5 L 327 899.5 L 328 898.5 L 328 887 Z " />
    <path fill="rgb(0,0,0)" stroke="rgb(0,0,0)" stroke-width="1" opacity="0.984313725490196" d="M 1495.5 898 Q 1497.3 900.7 1503.5 899 L 1505.5 898 L 1506.5 899 L 1514 899 L 1514 906.5 L 1515 907.5 L 1515 942.5 L 1516 943.5 L 1516 978.5 L 1517 979.5 L 1517 1014.5 L 1518 1015.5 L 1518 1049.5 L 1519 1050.5 L 1519 1084.5 L 1520 1085.5 L 1520 1120.5 L 1521 1121.5 L 1521 1155.5 L 1522 1156.5 L 1522 1191.5 L 1523 1192.5 L 1523 1226.5 L 1524 1227.5 L 1524 1262.5 L 1525 1263.5 L 1525 1298.5 L 1526 1299.5 L 1526 1334.5 L 1527 1335.5 L 1527 1369.5 L 1528 1370.5 L 1528 1404.5 L 1529 1405.5 L 1529 1440.5 L 1530 1441.5 L 1530 1475.5 L 1531 1476.5 L 1531 1510.5 L 1532 1511.5 L 1532 1546.5 L 1533 1547.5 L 1534 1595.5 L 1531 1603 L 1527.5 1605 L 1454.5 1605 L 1453.5 1604 L 1368.5 1604 L 1367.5 1603 L 1111.5 1601 L 1110.5 1600 L 1108.5 1600 L 1037.5 1600 L 1036 1598.5 L 1036 1580 L 1084.5 1580 L 1085.5 1581 L 1170.5 1581 L 1171.5 1582 L 1256.5 1582 L 1257.5 1583 L 1343.5 1583 L 1344.5 1584 L 1514 1585 L 1514 1572.5 L 1513 1571.5 L 1513 1537.5 L 1512 1536.5 L 1512 1501.5 L 1511 1500.5 L 1511 1466.5 L 1510 1465.5 L 1510 1431.5 L 1509 1430.5 L 1508 1360.5 L 1507 1359.5 L 1507 1324.5 L 1506 1323.5 L 1504 1217.5 L 1503 1216.5 L 1502 1146.5 L 1501 1145.5 L 1501 1111.5 L 1500 1110.5 L 1499 1040.5 L 1498 1039.5 L 1496 932.5 L 1495 931.5 L 1495.5 898 Z " />
    <path fill="rgb(0,0,0)" stroke="rgb(0,0,0)" stroke-width="1" opacity="0.984313725490196" d="M 886.5 940 L 907.5 941 L 910.5 940 L 911.5 941 L 925.5 941 L 926.5 940 L 934.5 940 Q 977.4 949.1 1002 976.5 L 1014 994.5 L 1017 1009.5 L 1020.5 1014 L 1080 1054.5 L 1083 1063.5 L 1074 1081.5 L 1072 1105.5 L 1073 1106.5 Q 1071.7 1116.8 1074 1123.5 L 1082 1143.5 L 1091 1157.5 L 1110 1178.5 Q 1113.5 1182.5 1112 1191.5 L 1107 1206.5 L 1105 1219.5 L 1106 1220.5 L 1107 1245.5 L 1106 1246.5 L 1105 1260.5 L 1101 1269.5 Q 1086.5 1283.5 1076 1301.5 L 1067 1323.5 L 1066 1339.5 L 1065 1340.5 L 1065 1353.5 L 1064 1354.5 L 1064 1412.5 L 1005 1525.5 L 998 1546.5 L 997 1562.5 L 996 1563.5 L 996 1596.5 L 992 1612.5 L 991 1623.5 L 978 1688.5 L 970 1715.5 Q 965.8 1726.3 957.5 1733 L 950.5 1737 L 941.5 1739 L 910.5 1740 L 908.5 1741 L 907.5 1740 L 880.5 1739 L 870.5 1737 L 859 1728.5 L 848 1706.5 L 833 1637.5 L 830 1616.5 L 826 1600.5 L 826 1591.5 L 825 1590.5 L 825 1560.5 L 824 1559.5 L 823 1545.5 L 814 1520.5 L 758 1414.5 L 757 1411.5 L 757 1350.5 L 756 1349.5 L 755 1326.5 Q 752.1 1312.9 746 1302.5 Q 735.6 1284.4 721 1270.5 L 718 1264.5 L 716 1259.5 L 716 1251.5 L 715 1250.5 L 715 1226.5 L 716 1225.5 L 716 1214.5 L 710 1195.5 L 709 1183.5 L 711 1178.5 L 731 1156.5 L 741 1139.5 L 748 1121.5 L 749 1093.5 L 748 1092.5 L 747 1080.5 L 739 1066.5 L 739 1058.5 L 742 1053 L 799.5 1015 L 804 1010.5 L 809 991.5 Q 817.9 975.4 831.5 964 L 857.5 949 L 870.5 944 L 886.5 940 Z M 885 967 L 868 973 L 850 983 Q 839 991 832 1004 L 829 1019 L 826 1026 L 818 1034 L 777 1061 L 769 1068 L 773 1077 L 774 1093 L 775 1094 L 774 1124 L 767 1145 Q 757 1170 739 1187 L 748 1203 L 751 1216 L 752 1238 L 754 1246 L 761 1257 L 770 1265 L 781 1271 Q 786 1274 796 1272 L 797 1273 L 804 1273 L 814 1271 L 827 1263 L 836 1263 L 843 1267 L 851 1287 L 871 1347 Q 872 1350 877 1349 L 879 1346 L 887 1308 L 895 1279 L 895 1275 L 903 1247 L 908 1245 L 917 1246 L 920 1251 L 922 1258 L 939 1328 L 939 1332 L 944 1348 L 944 1349 L 949 1349 L 977 1270 L 986 1263 L 995 1263 L 1008 1271 L 1018 1273 L 1039 1272 L 1056 1262 L 1067 1247 L 1070 1233 L 1070 1217 L 1073 1204 L 1082 1188 L 1082 1186 L 1065 1166 L 1056 1149 L 1048 1128 Q 1049 1123 1047 1122 L 1047 1103 L 1046 1102 L 1048 1078 L 1052 1067 L 1003 1033 L 994 1024 L 990 1006 L 981 992 L 971 982 L 952 972 L 941 968 L 937 967 L 885 967 Z M 773 1295 L 772 1298 Q 778 1309 781 1325 L 782 1351 L 783 1352 L 783 1407 Q 814 1460 841 1519 L 845 1523 L 868 1558 Q 867 1560 870 1559 L 869 1540 L 869 1538 L 868 1535 L 869 1531 L 869 1529 L 868 1512 L 862 1487 L 844 1437 L 843 1430 L 838 1420 Q 837 1410 833 1405 L 827 1382 L 823 1375 L 816 1353 L 816 1339 L 814 1331 L 814 1307 L 813 1306 L 813 1298 L 805 1298 L 804 1299 L 779 1298 L 773 1295 Z M 1049 1295 L 1043 1298 L 1027 1298 L 1026 1299 L 1008 1298 L 1008 1326 L 1006 1334 L 1005 1354 L 998 1376 L 993 1386 L 988 1406 L 977 1435 L 976 1442 L 969 1458 L 962 1482 L 959 1488 L 953 1515 L 953 1543 L 951 1554 Q 949 1560 953 1559 L 975 1525 L 981 1518 L 1003 1472 L 1039 1405 L 1038 1403 L 1039 1400 L 1038 1397 L 1039 1393 L 1038 1390 L 1039 1387 L 1038 1384 L 1039 1380 L 1038 1377 L 1039 1374 L 1038 1371 L 1039 1367 L 1038 1364 L 1039 1361 L 1038 1358 L 1041 1321 L 1049 1298 Q 1051 1296 1049 1295 Z M 900 1310 L 898 1311 L 896 1313 L 895 1323 L 890 1345 L 887 1352 L 881 1356 L 871 1355 L 863 1348 L 851 1328 Q 850 1324 845 1325 L 841 1330 L 837 1341 L 837 1355 L 836 1356 L 847 1399 L 847 1403 L 850 1411 L 850 1415 L 852 1419 L 855 1436 L 858 1444 L 866 1482 L 872 1503 L 872 1507 L 874 1511 L 874 1515 L 884 1557 Q 885 1561 891 1560 L 904 1538 L 910 1534 L 915 1535 L 932 1560 L 936 1559 L 938 1556 L 941 1538 L 946 1521 L 949 1504 L 951 1500 L 955 1479 L 957 1475 L 960 1458 L 962 1454 L 966 1433 L 968 1429 L 971 1412 L 973 1408 L 980 1376 L 985 1360 L 984 1339 L 980 1329 L 977 1325 L 971 1326 L 956 1351 L 949 1356 L 939 1355 L 933 1350 L 927 1326 L 926 1316 L 923 1310 L 920 1311 L 918 1313 L 917 1374 L 916 1375 L 915 1393 L 914 1395 Q 913 1397 909 1396 L 906 1393 L 905 1368 L 904 1367 L 903 1313 L 900 1310 Z M 911 1538 L 909 1539 L 882 1594 L 877 1600 L 872 1600 L 865 1597 L 858 1590 L 854 1576 L 854 1572 L 851 1567 L 847 1568 L 847 1577 L 849 1582 L 865 1667 L 868 1677 L 868 1682 L 874 1703 L 878 1711 Q 880 1714 887 1713 L 891 1709 L 892 1705 L 892 1698 L 895 1684 L 895 1677 L 897 1671 L 898 1657 L 900 1651 L 900 1644 L 903 1630 L 905 1611 Q 907 1607 914 1608 L 917 1614 L 917 1621 L 920 1634 L 920 1641 L 923 1655 L 923 1662 L 925 1668 L 926 1682 L 928 1688 L 930 1708 L 935 1713 L 942 1712 L 947 1704 L 952 1688 L 969 1599 L 971 1594 L 971 1588 L 975 1574 Q 976 1568 973 1567 L 969 1568 L 962 1592 Q 958 1597 951 1600 L 945 1600 L 940 1595 L 915 1542 L 911 1538 Z " />
    <path fill="rgb(0,0,0)" stroke="rgb(0,0,0)" stroke-width="1" opacity="0.984313725490196" d="M 909 1551 L 913 1552.5 L 918 1562.5 L 911.5 1557 L 906 1560.5 L 904.5 1563 L 904 1560.5 L 909 1551 Z " />
</svg>